<mxfile host="app.diagrams.net" modified="2022-12-03T14:00:26.100Z" agent="5.0 (Macintosh; Intel Mac OS X 10_15_7) AppleWebKit/537.36 (KHTML, like Gecko) Chrome/108.0.0.0 Safari/537.36" version="20.6.0" etag="ZANQfREQjp79IZR_UNye" type="github">
  <diagram id="tFoCTrvRYE1xDJHdvxBb" name="Page-1">
    <mxGraphModel dx="2066" dy="1154" grid="1" gridSize="10" guides="1" tooltips="1" connect="1" arrows="1" fold="1" page="1" pageScale="1" pageWidth="850" pageHeight="1100" math="0" shadow="0">
      <root>
        <mxCell id="0" />
        <mxCell id="1" parent="0" />
        <mxCell id="FZpEU5qAI4f56v0_o0eo-1" value="TASK1" style="rounded=0;whiteSpace=wrap;html=1;fillColor=#e1d5e7;strokeColor=#9673a6;" vertex="1" parent="1">
          <mxGeometry x="120" y="560" width="100" height="40" as="geometry" />
        </mxCell>
        <mxCell id="FZpEU5qAI4f56v0_o0eo-3" value="" style="endArrow=none;dashed=1;html=1;dashPattern=1 3;strokeWidth=2;rounded=0;" edge="1" parent="1">
          <mxGeometry width="50" height="50" relative="1" as="geometry">
            <mxPoint x="20" y="480" as="sourcePoint" />
            <mxPoint x="840" y="480" as="targetPoint" />
          </mxGeometry>
        </mxCell>
        <mxCell id="FZpEU5qAI4f56v0_o0eo-4" value="" style="endArrow=none;dashed=1;html=1;dashPattern=1 3;strokeWidth=2;rounded=0;" edge="1" parent="1">
          <mxGeometry width="50" height="50" relative="1" as="geometry">
            <mxPoint x="20" y="560" as="sourcePoint" />
            <mxPoint x="830" y="560" as="targetPoint" />
          </mxGeometry>
        </mxCell>
        <mxCell id="FZpEU5qAI4f56v0_o0eo-5" value="" style="shape=flexArrow;endArrow=classic;startArrow=classic;html=1;rounded=0;fillColor=#dae8fc;strokeColor=#6c8ebf;" edge="1" parent="1">
          <mxGeometry width="100" height="100" relative="1" as="geometry">
            <mxPoint x="60" y="560" as="sourcePoint" />
            <mxPoint x="60" y="480" as="targetPoint" />
          </mxGeometry>
        </mxCell>
        <mxCell id="FZpEU5qAI4f56v0_o0eo-6" value="DMA" style="edgeLabel;html=1;align=center;verticalAlign=middle;resizable=0;points=[];" vertex="1" connectable="0" parent="FZpEU5qAI4f56v0_o0eo-5">
          <mxGeometry x="-0.1" y="-3" relative="1" as="geometry">
            <mxPoint as="offset" />
          </mxGeometry>
        </mxCell>
        <mxCell id="FZpEU5qAI4f56v0_o0eo-7" value="Allreduce1" style="rounded=0;whiteSpace=wrap;html=1;fillColor=#d5e8d4;strokeColor=#82b366;" vertex="1" parent="1">
          <mxGeometry x="220" y="560" width="80" height="40" as="geometry" />
        </mxCell>
        <mxCell id="FZpEU5qAI4f56v0_o0eo-8" value="Memory Copy1" style="rounded=0;whiteSpace=wrap;html=1;fillColor=#d5e8d4;strokeColor=#82b366;" vertex="1" parent="1">
          <mxGeometry x="300" y="520" width="100" height="40" as="geometry" />
        </mxCell>
        <mxCell id="FZpEU5qAI4f56v0_o0eo-9" value="Allreduce/Net1" style="rounded=0;whiteSpace=wrap;html=1;fillColor=#d5e8d4;strokeColor=#82b366;" vertex="1" parent="1">
          <mxGeometry x="300" y="440" width="100" height="40" as="geometry" />
        </mxCell>
        <mxCell id="FZpEU5qAI4f56v0_o0eo-10" value="all compute task could use DMA all the time" style="rounded=0;whiteSpace=wrap;html=1;fillColor=#e1d5e7;strokeColor=#9673a6;" vertex="1" parent="1">
          <mxGeometry x="120" y="480" width="720" height="40" as="geometry" />
        </mxCell>
        <mxCell id="FZpEU5qAI4f56v0_o0eo-11" value="compute" style="rounded=0;whiteSpace=wrap;html=1;fillColor=#e1d5e7;strokeColor=#9673a6;" vertex="1" parent="1">
          <mxGeometry x="80" y="320" width="120" height="40" as="geometry" />
        </mxCell>
        <mxCell id="FZpEU5qAI4f56v0_o0eo-12" value="TCCL" style="rounded=0;whiteSpace=wrap;html=1;fillColor=#d5e8d4;strokeColor=#82b366;" vertex="1" parent="1">
          <mxGeometry x="240" y="320" width="120" height="40" as="geometry" />
        </mxCell>
        <mxCell id="FZpEU5qAI4f56v0_o0eo-13" value="Bcast1" style="rounded=0;whiteSpace=wrap;html=1;fillColor=#d5e8d4;strokeColor=#82b366;" vertex="1" parent="1">
          <mxGeometry x="480" y="560" width="80" height="40" as="geometry" />
        </mxCell>
        <mxCell id="FZpEU5qAI4f56v0_o0eo-14" value="AI Card Compute" style="text;html=1;strokeColor=none;fillColor=none;align=center;verticalAlign=middle;whiteSpace=wrap;rounded=0;" vertex="1" parent="1">
          <mxGeometry x="20" y="610" width="140" height="60" as="geometry" />
        </mxCell>
        <mxCell id="FZpEU5qAI4f56v0_o0eo-15" value="Host &amp;amp; Net" style="text;html=1;strokeColor=none;fillColor=none;align=center;verticalAlign=middle;whiteSpace=wrap;rounded=0;" vertex="1" parent="1">
          <mxGeometry x="20" y="390" width="140" height="60" as="geometry" />
        </mxCell>
        <mxCell id="FZpEU5qAI4f56v0_o0eo-16" value="TASK2" style="rounded=0;whiteSpace=wrap;html=1;fillColor=#e1d5e7;strokeColor=#9673a6;" vertex="1" parent="1">
          <mxGeometry x="300" y="560" width="100" height="40" as="geometry" />
        </mxCell>
        <mxCell id="FZpEU5qAI4f56v0_o0eo-17" value="TASK1" style="rounded=0;whiteSpace=wrap;html=1;fillColor=#e1d5e7;strokeColor=#9673a6;" vertex="1" parent="1">
          <mxGeometry x="560" y="560" width="100" height="40" as="geometry" />
        </mxCell>
        <mxCell id="FZpEU5qAI4f56v0_o0eo-18" value="Allreduce2" style="rounded=0;whiteSpace=wrap;html=1;fillColor=#d5e8d4;strokeColor=#82b366;" vertex="1" parent="1">
          <mxGeometry x="400" y="560" width="80" height="40" as="geometry" />
        </mxCell>
        <mxCell id="FZpEU5qAI4f56v0_o0eo-19" value="Memory Copy2" style="rounded=0;whiteSpace=wrap;html=1;fillColor=#d5e8d4;strokeColor=#82b366;" vertex="1" parent="1">
          <mxGeometry x="560" y="520" width="100" height="40" as="geometry" />
        </mxCell>
        <mxCell id="FZpEU5qAI4f56v0_o0eo-20" value="Memory Copy2" style="rounded=0;whiteSpace=wrap;html=1;fillColor=#d5e8d4;strokeColor=#82b366;" vertex="1" parent="1">
          <mxGeometry x="560" y="440" width="100" height="40" as="geometry" />
        </mxCell>
        <mxCell id="FZpEU5qAI4f56v0_o0eo-21" value="Bcast2" style="rounded=0;whiteSpace=wrap;html=1;fillColor=#d5e8d4;strokeColor=#82b366;" vertex="1" parent="1">
          <mxGeometry x="660" y="560" width="80" height="40" as="geometry" />
        </mxCell>
        <mxCell id="FZpEU5qAI4f56v0_o0eo-22" value="" style="endArrow=none;dashed=1;html=1;dashPattern=1 3;strokeWidth=2;rounded=0;" edge="1" parent="1">
          <mxGeometry width="50" height="50" relative="1" as="geometry">
            <mxPoint x="760" y="579.5" as="sourcePoint" />
            <mxPoint x="840" y="579.5" as="targetPoint" />
          </mxGeometry>
        </mxCell>
        <mxCell id="FZpEU5qAI4f56v0_o0eo-23" value="" style="endArrow=none;dashed=1;html=1;dashPattern=1 3;strokeWidth=2;rounded=0;" edge="1" parent="1">
          <mxGeometry width="50" height="50" relative="1" as="geometry">
            <mxPoint x="730" y="459.5" as="sourcePoint" />
            <mxPoint x="810" y="459.5" as="targetPoint" />
          </mxGeometry>
        </mxCell>
      </root>
    </mxGraphModel>
  </diagram>
</mxfile>
